<svg width="215" height="63" viewBox="0 0 215 63" fill="none" xmlns="http://www.w3.org/2000/svg">
<path opacity="0.8" d="M1.376 47.328V58H2.56V53.36H3.6C6.032 53.36 6.976 51.872 6.976 50.368C6.976 49.68 6.784 48.768 6 48.08C5.28 47.456 4.4 47.328 3.312 47.328H1.376ZM2.56 48.448H3.44C4.208 48.448 5.792 48.592 5.792 50.304C5.792 51.536 4.944 52.24 3.536 52.24H2.56V48.448ZM13.1604 52.304C12.8564 51.92 12.1684 51.2 10.8884 51.2C9.17638 51.2 7.65638 52.384 7.65638 54.672C7.65638 57.008 9.22438 58.192 10.8884 58.192C12.0404 58.192 12.7924 57.568 13.1604 57.072V58H14.3124V51.36H13.1604V52.304ZM11.0164 52.224C12.0404 52.224 13.2244 52.976 13.2244 54.688C13.2244 56.016 12.4244 57.168 11.0164 57.168C9.64038 57.168 8.84038 56.08 8.84038 54.672C8.84038 53.056 9.88038 52.224 11.0164 52.224ZM17.3583 53.056C17.5343 52.752 17.7263 52.592 17.9023 52.48C18.2383 52.272 18.5583 52.224 18.8143 52.224C19.0223 52.224 19.3903 52.224 19.6623 52.464C19.8543 52.624 19.9503 52.848 19.9503 53.152C19.9503 53.456 19.7743 53.648 19.5983 53.76C19.4863 53.824 19.2623 53.936 18.7343 53.936H18.1743V54.992H18.8463C19.1503 54.992 19.5983 54.976 19.9343 55.216C20.1743 55.36 20.3343 55.616 20.3343 55.984C20.3343 56.48 20.1102 56.768 19.8703 56.912C19.5023 57.152 19.0063 57.168 18.7503 57.168C18.3823 57.168 18.0303 57.104 17.6623 56.832C17.2943 56.56 17.1343 56.256 17.0703 56.08L16.0783 56.496C16.2703 56.928 16.5743 57.328 16.9583 57.632C17.5182 58.064 18.1423 58.192 18.7343 58.192C19.4543 58.192 20.1263 58.048 20.6223 57.68C21.1823 57.28 21.4863 56.656 21.4863 55.968C21.4863 55.456 21.2943 55.056 21.0223 54.752C20.8463 54.576 20.5903 54.4 20.2543 54.32C20.5903 54.112 21.0063 53.712 21.0063 52.928C21.0063 52.464 20.8623 52.032 20.4303 51.664C19.9343 51.232 19.3903 51.2 18.8623 51.2C18.4303 51.2 17.9183 51.264 17.4062 51.568C17.0863 51.76 16.7983 52.08 16.5583 52.4L17.3583 53.056ZM24.3963 57.072C24.8923 57.712 25.6283 58.192 26.7163 58.192C28.7163 58.192 29.9003 56.544 29.9003 54.72C29.9003 52.928 28.7483 51.2 26.6683 51.2C26.1883 51.2 25.1643 51.296 24.3963 52.288V51.36H23.2443V61.68H24.3963V57.072ZM26.5563 57.168C25.2123 57.168 24.3323 56.064 24.3323 54.704C24.3323 53.104 25.4523 52.224 26.5403 52.224C27.6123 52.224 28.7163 53.088 28.7163 54.72C28.7163 56.064 27.9003 57.168 26.5563 57.168ZM36.7541 52.304C36.4501 51.92 35.7621 51.2 34.4821 51.2C32.7701 51.2 31.2501 52.384 31.2501 54.672C31.2501 57.008 32.8181 58.192 34.4821 58.192C35.6341 58.192 36.3861 57.568 36.7541 57.072V58H37.9061V51.36H36.7541V52.304ZM34.6101 52.224C35.6341 52.224 36.8181 52.976 36.8181 54.688C36.8181 56.016 36.0181 57.168 34.6101 57.168C33.2341 57.168 32.4341 56.08 32.4341 54.672C32.4341 53.056 33.4741 52.224 34.6101 52.224ZM45.208 46.8C45.064 47.168 44.776 47.44 43.88 47.648C43.112 47.824 42.28 47.968 41.56 48.464C39.72 49.744 39.672 52.752 39.672 53.936C39.672 55.104 39.784 56.432 40.792 57.36C41.224 57.76 41.944 58.192 43.08 58.192C45.256 58.192 46.712 56.688 46.712 54.704C46.712 52.72 45.24 51.2 43.256 51.2C42.056 51.2 41.272 51.664 40.84 52.416H40.808C40.856 51.2 41.368 50 42.2 49.376C42.84 48.912 43.688 48.768 44.312 48.608C45.016 48.432 46.104 48.08 46.488 46.8H45.208ZM43.192 52.224C44.408 52.224 45.528 53.088 45.528 54.704C45.528 56.304 44.392 57.168 43.192 57.168C42.008 57.168 40.856 56.336 40.856 54.704C40.856 53.088 41.976 52.224 43.192 52.224ZM51.5826 58.192C53.5986 58.192 55.1026 56.704 55.1026 54.704C55.1026 52.704 53.6146 51.2 51.5826 51.2C49.5506 51.2 48.0626 52.704 48.0626 54.704C48.0626 56.704 49.5666 58.192 51.5826 58.192ZM51.5826 52.224C52.7986 52.224 53.9186 53.088 53.9186 54.704C53.9186 56.304 52.7826 57.168 51.5826 57.168C50.3986 57.168 49.2466 56.336 49.2466 54.704C49.2466 53.088 50.3666 52.224 51.5826 52.224ZM61.065 52.416V51.36H55.753V52.416H57.833V58H58.985V52.416H61.065ZM67.1604 52.304C66.8564 51.92 66.1684 51.2 64.8884 51.2C63.1764 51.2 61.6564 52.384 61.6564 54.672C61.6564 57.008 63.2244 58.192 64.8884 58.192C66.0404 58.192 66.7924 57.568 67.1604 57.072V58H68.3124V51.36H67.1604V52.304ZM65.0164 52.224C66.0404 52.224 67.2244 52.976 67.2244 54.688C67.2244 56.016 66.4244 57.168 65.0164 57.168C63.6404 57.168 62.8404 56.08 62.8404 54.672C62.8404 53.056 63.8804 52.224 65.0164 52.224ZM70.4943 58H71.6463V55.136H74.7823V58H75.9343V51.36H74.7823V54.08H71.6463V51.36H70.4943V58ZM81.2076 58.192C83.2236 58.192 84.7276 56.704 84.7276 54.704C84.7276 52.704 83.2396 51.2 81.2076 51.2C79.1756 51.2 77.6876 52.704 77.6876 54.704C77.6876 56.704 79.1916 58.192 81.2076 58.192ZM81.2076 52.224C82.4236 52.224 83.5436 53.088 83.5436 54.704C83.5436 56.304 82.4076 57.168 81.2076 57.168C80.0236 57.168 78.8716 56.336 78.8716 54.704C78.8716 53.088 79.9916 52.224 81.2076 52.224ZM90.2286 51.36V58H93.0926C93.6206 58 94.2606 57.856 94.6606 57.552C95.0286 57.248 95.3486 56.752 95.3486 56.048C95.3486 55.536 95.1726 55.104 94.8206 54.768C94.5006 54.464 94.1806 54.368 93.9886 54.32C94.3886 54.064 94.7086 53.648 94.7086 52.992C94.7086 52.304 94.3726 51.936 94.1326 51.744C93.6686 51.376 93.1086 51.36 92.7406 51.36H90.2286ZM91.3806 54.064V52.384H92.4046C92.7726 52.384 93.0606 52.368 93.3326 52.544C93.5086 52.672 93.6526 52.864 93.6526 53.184C93.6526 53.584 93.4606 53.76 93.3326 53.872C93.0766 54.048 92.7086 54.064 92.5966 54.064H91.3806ZM91.3806 56.976V55.024H92.8526C93.1726 55.024 93.5886 55.024 93.8926 55.264C94.1166 55.44 94.2286 55.696 94.2286 56.016C94.2286 56.32 94.0526 56.576 93.8446 56.752C93.5406 56.96 93.1246 56.976 92.8046 56.976H91.3806ZM106.038 51.84C105.718 51.6 105.046 51.2 103.974 51.2C101.926 51.2 100.422 52.688 100.422 54.72C100.422 56.704 101.91 58.192 103.974 58.192C104.598 58.192 105.366 58.032 106.086 57.504V56.128C105.462 56.88 104.63 57.168 103.942 57.168C102.758 57.168 101.606 56.304 101.606 54.704C101.606 53.088 102.726 52.224 103.958 52.224C104.55 52.224 105.414 52.448 106.038 53.216V51.84ZM112.206 52.416V51.36H106.894V52.416H108.974V58H110.126V52.416H112.206ZM113.713 61.68H114.993L119.873 51.36H118.593L116.433 56.112L114.081 51.36H112.769L115.825 57.376L113.713 61.68ZM121.568 51.36V54.32C121.568 55.008 121.536 55.616 121.296 56.08C121.056 56.544 120.64 56.928 120.064 56.944V59.76H121.12V58H126.176V59.76H127.232V56.944H126.24V51.36H121.568ZM125.088 56.944H121.92C122.544 56.384 122.72 55.68 122.72 54.912V52.416H125.088V56.944ZM128.447 51.36V58.464L132.991 53.568V58H134.143V50.848L129.599 55.744V51.36H128.447ZM136.322 51.36V58.464L140.866 53.568V58H142.018V50.848L137.474 55.744V51.36H136.322ZM144.133 52C144.133 52.432 144.501 52.8 144.933 52.8C145.365 52.8 145.733 52.432 145.733 52C145.733 51.568 145.365 51.2 144.933 51.2C144.501 51.2 144.133 51.568 144.133 52ZM144.133 57.392C144.133 57.824 144.501 58.192 144.933 58.192C145.365 58.192 145.733 57.824 145.733 57.392C145.733 56.96 145.365 56.592 144.933 56.592C144.501 56.592 144.133 56.96 144.133 57.392ZM158.996 58H160.308L155.524 46.816L150.612 58H151.924L153.204 54.992H157.748L158.996 58ZM153.668 53.872L155.492 49.6L157.284 53.872H153.668ZM162.678 57.072C163.174 57.712 163.91 58.192 164.998 58.192C166.998 58.192 168.182 56.544 168.182 54.72C168.182 52.928 167.03 51.2 164.95 51.2C164.47 51.2 163.446 51.296 162.678 52.288V51.36H161.526V61.68H162.678V57.072ZM164.838 57.168C163.494 57.168 162.614 56.064 162.614 54.704C162.614 53.104 163.734 52.224 164.822 52.224C165.894 52.224 166.998 53.088 166.998 54.72C166.998 56.064 166.182 57.168 164.838 57.168ZM174.143 52.416V51.36H168.831V52.416H170.911V58H172.063V52.416H174.143ZM179.376 58H180.56V48.448H184.24V47.328H179.376V58ZM186.833 58.192C188.849 58.192 190.353 56.704 190.353 54.704C190.353 52.704 188.865 51.2 186.833 51.2C184.801 51.2 183.313 52.704 183.313 54.704C183.313 56.704 184.817 58.192 186.833 58.192ZM186.833 52.224C188.049 52.224 189.169 53.088 189.169 54.704C189.169 56.304 188.033 57.168 186.833 57.168C185.649 57.168 184.497 56.336 184.497 54.704C184.497 53.088 185.617 52.224 186.833 52.224ZM193.271 57.072C193.767 57.712 194.503 58.192 195.591 58.192C197.591 58.192 198.775 56.544 198.775 54.72C198.775 52.928 197.623 51.2 195.543 51.2C195.063 51.2 194.039 51.296 193.271 52.288V51.36H192.119V61.68H193.271V57.072ZM195.431 57.168C194.087 57.168 193.207 56.064 193.207 54.704C193.207 53.104 194.327 52.224 195.415 52.224C196.487 52.224 197.591 53.088 197.591 54.72C197.591 56.064 196.775 57.168 195.431 57.168ZM200.541 51.36V58H201.693V55.424L202.045 55.088L204.637 58H206.141L202.909 54.32L205.789 51.36H204.381L201.693 54.08V51.36H200.541ZM212.379 52.304C212.075 51.92 211.387 51.2 210.107 51.2C208.395 51.2 206.875 52.384 206.875 54.672C206.875 57.008 208.443 58.192 210.107 58.192C211.259 58.192 212.011 57.568 212.379 57.072V58H213.531V51.36H212.379V52.304ZM210.235 52.224C211.259 52.224 212.443 52.976 212.443 54.688C212.443 56.016 211.643 57.168 210.235 57.168C208.859 57.168 208.059 56.08 208.059 54.672C208.059 53.056 209.099 52.224 210.235 52.224Z" fill="#15142F"/>
<a href="http://www.artgorka.ru">
<rect fill="black" fill-opacity="0" x="150.484" width="64.1348" height="20.512"/>
</a>
<g opacity="0.6">
<path fill-rule="evenodd" clip-rule="evenodd" d="M104.406 26.766C102.025 26.766 100.094 28.7092 100.094 31.1064V34H149.688C152.069 34 154 32.0567 154 29.6596V26.766H104.406ZM147.844 32.5532H148.25L146.52 28.2128H145.668L143.938 32.5532H144.299C144.595 32.5532 144.861 32.3707 144.969 32.0933L145.137 31.6598H147.006L147.175 32.0933C147.282 32.3707 147.548 32.5532 147.844 32.5532ZM145.428 30.9121L146.072 29.2393L146.716 30.9121H145.428ZM135.536 30.722H135.454V32.5532H134.594V28.2128H135.454V29.9489H135.524C135.746 29.9489 135.913 29.9151 136.026 29.8476C136.139 29.7757 136.261 29.6321 136.391 29.4167L137.119 28.2128H138.043L137.314 29.4103C137.209 29.5835 137.111 29.7356 137.019 29.8666C136.931 29.9933 136.845 30.1052 136.761 30.2024L138.188 32.5532H137.605C137.354 32.5532 137.121 32.4217 136.991 32.2063L136.058 30.6649C135.978 30.6861 135.894 30.7009 135.806 30.7093C135.723 30.7178 135.632 30.722 135.536 30.722ZM125.609 32.5532H126.451V30.8931H127.06L127.731 32.1682C127.855 32.405 128.1 32.5532 128.366 32.5532H128.844L127.839 30.6776C128.082 30.572 128.268 30.4199 128.398 30.2214C128.528 30.0229 128.593 29.7884 128.593 29.5181C128.593 29.1252 128.448 28.8105 128.159 28.5739C127.874 28.3332 127.498 28.2128 127.029 28.2128H125.609V32.5532ZM127.544 29.1442C127.665 29.2456 127.726 29.3829 127.726 29.5561C127.726 29.7293 127.665 29.8687 127.544 29.9743C127.426 30.0757 127.265 30.1264 127.06 30.1264H126.451V28.9858H127.06C127.265 28.9858 127.426 29.0386 127.544 29.1442ZM117.703 32.5532C117.089 32.5532 116.577 32.348 116.165 31.9375C115.753 31.523 115.547 31.0058 115.547 30.3861C115.547 29.7663 115.753 29.2491 116.165 28.8346C116.577 28.42 117.089 28.2128 117.703 28.2128C118.317 28.2128 118.83 28.42 119.242 28.8346C119.653 29.2491 119.859 29.7663 119.859 30.3861C119.859 31.0058 119.653 31.523 119.242 31.9375C118.83 32.348 118.317 32.5532 117.703 32.5532ZM117.703 31.7775C118.07 31.7775 118.375 31.6461 118.618 31.3834C118.865 31.1166 118.988 30.7842 118.988 30.3861C118.988 29.9879 118.865 29.6555 118.618 29.3887C118.375 29.1219 118.07 28.9885 117.703 28.9885C117.337 28.9885 117.03 29.1219 116.783 29.3887C116.54 29.6555 116.418 29.9879 116.418 30.3861C116.418 30.7842 116.54 31.1166 116.783 31.3834C117.03 31.6461 117.337 31.7775 117.703 31.7775ZM109.248 31.956C109.614 31.5538 109.797 31.0551 109.797 30.4599C109.797 30.4107 109.795 30.3614 109.791 30.3122C109.791 30.2629 109.789 30.2219 109.785 30.189H107.794V30.2167C107.794 30.6163 108.116 30.9402 108.513 30.9402H108.956C108.882 31.1987 108.75 31.404 108.559 31.5558C108.368 31.7036 108.142 31.7775 107.882 31.7775C107.535 31.7775 107.245 31.6461 107.012 31.3834C106.782 31.1166 106.667 30.7842 106.667 30.3861C106.667 29.9879 106.782 29.6555 107.012 29.3887C107.245 29.1219 107.535 28.9885 107.882 28.9885C108.061 28.9885 108.228 29.0254 108.384 29.0993C108.543 29.1732 108.693 29.284 108.833 29.4318L109.324 28.8654C109.125 28.6519 108.903 28.4898 108.658 28.379C108.413 28.2682 108.154 28.2128 107.882 28.2128C107.302 28.2128 106.817 28.42 106.428 28.8346C106.038 29.2491 105.844 29.7663 105.844 30.3861C105.844 31.0058 106.038 31.523 106.428 31.9375C106.817 32.348 107.302 32.5532 107.882 32.5532C108.427 32.5532 108.882 32.3541 109.248 31.956Z" fill="#15142F"/>
<path d="M154 5.06386V0.723404H137.469V5.06386H143.578V12.298C143.578 14.2956 145.187 15.915 147.172 15.915H147.891V5.06386H154Z" fill="#15142F"/>
<path d="M147.891 18.0851H143.578V22.4256H147.891V18.0851Z" fill="#15142F"/>
<path d="M123.094 22.4254C124.285 22.4254 125.25 21.4537 125.25 20.2551C125.25 19.0566 124.285 18.0849 123.094 18.0849C121.903 18.0849 120.938 19.0566 120.938 20.2551C120.938 21.4537 121.903 22.4254 123.094 22.4254Z" fill="#15142F"/>
<path d="M137.469 22.4255H134.561C133.449 22.4255 132.398 21.9065 131.718 21.0201L126.688 14.4681H131.407L137.469 22.4255Z" fill="#15142F"/>
<path d="M135.672 8.13828C135.672 9.88391 134.594 13.383 131.406 14.4681C130.771 14.7142 129.922 14.8298 129.203 14.8298C128.485 14.8298 126.688 14.4681 126.688 14.4681C129.707 13.8394 131.36 10.8511 131.36 8.31915C131.36 6.51064 130.102 5.06383 128.305 5.06383C126.688 5.06382 125.25 6.375 125.25 8.13829V15.9149H124.531C122.547 15.9149 120.938 14.2955 120.938 12.2979V8.13828C120.938 7.81275 120.974 6.6553 121.046 6.32977C121.813 3.30325 124.775 0.723404 127.945 0.723404C128.149 0.723404 128.281 0.723404 128.485 0.723404C132.626 0.816042 135.672 4.14066 135.672 8.13828Z" fill="#15142F"/>
<path d="M119.5 22.4255H117.53C116.106 22.4255 114.817 21.5796 114.242 20.2685L109.797 10.1277L105.352 20.2685C104.777 21.5795 103.487 22.4255 102.064 22.4255H100.094L109.438 0.723404H110.156L119.5 22.4255Z" fill="#15142F"/>
<path d="M109.797 18.0851L107.641 22.4255H111.953L109.797 18.0851Z" fill="#15142F"/>
<path fill-rule="evenodd" clip-rule="evenodd" d="M78.8906 29.659C84.634 29.659 89.4783 25.7845 90.9839 20.4907C91.2993 19.3819 91.4682 18.2108 91.4682 17C91.4682 10.0086 85.837 4.341 78.8906 4.341C71.9442 4.341 66.3131 10.0086 66.3131 17C66.3131 19.1936 66.8674 21.2568 67.8428 23.0556C69.9761 26.9899 74.1237 29.659 78.8906 29.659ZM78.8906 34C88.2191 34 95.7812 26.3888 95.7812 17C95.7812 7.61116 88.2191 0 78.8906 0C69.5622 0 62 7.61116 62 17C62 26.3888 69.5622 34 78.8906 34Z" fill="#15142F"/>
<path d="M83.2031 12.6596L73.8594 22.0638L71.3438 19.5319L67.8428 23.0556L66.4922 24.4149L69.9062 29.4787L78.8906 32.0106L84.4609 29.4787L92.1875 21.7021L90.9839 20.4907L83.2031 12.6596Z" fill="#15142F"/>
<path d="M77.0938 12.6596C77.0938 13.8581 76.1284 14.8298 74.9375 14.8298C73.7466 14.8298 72.7812 13.8581 72.7812 12.6596C72.7812 11.461 73.7466 10.4894 74.9375 10.4894C76.1284 10.4894 77.0938 11.461 77.0938 12.6596Z" fill="#15142F"/>
<path fill-rule="evenodd" clip-rule="evenodd" d="M78.8906 34C88.2191 34 95.7812 26.3888 95.7812 17C95.7812 7.61116 88.2191 0 78.8906 0C69.5622 0 62 7.61116 62 17C62 26.3888 69.5622 34 78.8906 34ZM91.4682 17C91.4682 18.2108 91.2993 19.3819 90.9839 20.4907L83.2031 12.6596L73.8594 22.0638L71.3438 19.5319L67.8428 23.0556C66.8674 21.2568 66.3131 19.1936 66.3131 17C66.3131 10.0086 71.9442 4.341 78.8906 4.341C85.837 4.341 91.4682 10.0086 91.4682 17ZM77.0938 12.6596C77.0938 13.8581 76.1284 14.8298 74.9375 14.8298C73.7466 14.8298 72.7812 13.8581 72.7812 12.6596C72.7812 11.461 73.7466 10.4894 74.9375 10.4894C76.1284 10.4894 77.0938 11.461 77.0938 12.6596Z" fill="#15142F"/>
</g>
</svg>
